<svg width="24" height="24" viewBox="0 0 24 24" fill="none" xmlns="http://www.w3.org/2000/svg">
<path fill-rule="evenodd" clip-rule="evenodd" d="M11.9999 9.6413C10.6699 9.6413 9.58887 10.7233 9.58887 12.0533C9.58887 13.3823 10.6699 14.4633 11.9999 14.4633C13.3299 14.4633 14.4119 13.3823 14.4119 12.0533C14.4119 10.7233 13.3299 9.6413 11.9999 9.6413ZM11.9999 15.9633C9.84287 15.9633 8.08887 14.2093 8.08887 12.0533C8.08887 9.8963 9.84287 8.1413 11.9999 8.1413C14.1569 8.1413 15.9119 9.8963 15.9119 12.0533C15.9119 14.2093 14.1569 15.9633 11.9999 15.9633Z" fill="white"/>
<mask id="mask0_7_19914" style="mask-type:luminance" maskUnits="userSpaceOnUse" x="2" y="4" width="20" height="17">
<path fill-rule="evenodd" clip-rule="evenodd" d="M2 4.00018H21.9998V20.1052H2V4.00018Z" fill="white"/>
</mask>
<g mask="url(#mask0_7_19914)">
<path fill-rule="evenodd" clip-rule="evenodd" d="M3.56975 12.0525C5.42975 16.1615 8.56275 18.6045 11.9998 18.6055C15.4368 18.6045 18.5697 16.1615 20.4298 12.0525C18.5697 7.94451 15.4368 5.50151 11.9998 5.50051C8.56375 5.50151 5.42975 7.94451 3.56975 12.0525ZM12.0017 20.1055H11.9978H11.9967C7.86075 20.1025 4.14675 17.2035 2.06075 12.3485C1.97975 12.1595 1.97975 11.9455 2.06075 11.7565C4.14675 6.90251 7.86175 4.00351 11.9967 4.00051C11.9987 3.99951 11.9987 3.99951 11.9998 4.00051C12.0017 3.99951 12.0017 3.99951 12.0028 4.00051C16.1388 4.00351 19.8527 6.90251 21.9387 11.7565C22.0208 11.9455 22.0208 12.1595 21.9387 12.3485C19.8537 17.2035 16.1388 20.1025 12.0028 20.1055H12.0017Z" fill="white"/>
</g>
</svg>