<svg width="24" height="24" viewBox="0 0 24 24" fill="none" xmlns="http://www.w3.org/2000/svg">
<path fill-rule="evenodd" clip-rule="evenodd" d="M15.7161 16.9737H8.49609C8.08209 16.9737 7.74609 16.6377 7.74609 16.2237C7.74609 15.8097 8.08209 15.4737 8.49609 15.4737H15.7161C16.1301 15.4737 16.4661 15.8097 16.4661 16.2237C16.4661 16.6377 16.1301 16.9737 15.7161 16.9737Z" fill="#2B71F0"/>
<path fill-rule="evenodd" clip-rule="evenodd" d="M15.7161 12.7872H8.49609C8.08209 12.7872 7.74609 12.4512 7.74609 12.0372C7.74609 11.6232 8.08209 11.2872 8.49609 11.2872H15.7161C16.1301 11.2872 16.4661 11.6232 16.4661 12.0372C16.4661 12.4512 16.1301 12.7872 15.7161 12.7872Z" fill="#2B71F0"/>
<path fill-rule="evenodd" clip-rule="evenodd" d="M11.2501 8.61035H8.49512C8.08112 8.61035 7.74512 8.27435 7.74512 7.86035C7.74512 7.44635 8.08112 7.11035 8.49512 7.11035H11.2501C11.6641 7.11035 12.0001 7.44635 12.0001 7.86035C12.0001 8.27435 11.6641 8.61035 11.2501 8.61035Z" fill="#2B71F0"/>
<mask id="mask0_7_19926" style="mask-type:luminance" maskUnits="userSpaceOnUse" x="3" y="2" width="19" height="20">
<path fill-rule="evenodd" clip-rule="evenodd" d="M3 2.00018H21.1647V21.91H3V2.00018Z" fill="white"/>
</mask>
<g mask="url(#mask0_7_19926)">
<path fill-rule="evenodd" clip-rule="evenodd" d="M15.9092 3.49995L8.22019 3.50395C5.89219 3.51795 4.50019 4.95795 4.50019 7.35695V16.5529C4.50019 18.9679 5.90519 20.4099 8.25619 20.4099L15.9452 20.4069C18.2732 20.3929 19.6652 18.9509 19.6652 16.5529V7.35695C19.6652 4.94195 18.2612 3.49995 15.9092 3.49995ZM8.257 21.9099C5.113 21.9099 3 19.7569 3 16.5529V7.35694C3 4.12394 5.047 2.02294 8.215 2.00394L15.908 1.99994H15.909C19.053 1.99994 21.165 4.15294 21.165 7.35694V16.5529C21.165 19.7849 19.118 21.8869 15.95 21.9069L8.257 21.9099Z" fill="#2B71F0"/>
</g>
</svg>