<svg width="24" height="24" viewBox="0 0 24 24" fill="none" xmlns="http://www.w3.org/2000/svg">
<path fill-rule="evenodd" clip-rule="evenodd" d="M15.7161 16.9738H8.49609C8.08209 16.9738 7.74609 16.6378 7.74609 16.2238C7.74609 15.8098 8.08209 15.4738 8.49609 15.4738H15.7161C16.1301 15.4738 16.4661 15.8098 16.4661 16.2238C16.4661 16.6378 16.1301 16.9738 15.7161 16.9738Z" fill="#2B71F0"/>
<path fill-rule="evenodd" clip-rule="evenodd" d="M15.7161 12.7872H8.49609C8.08209 12.7872 7.74609 12.4512 7.74609 12.0372C7.74609 11.6232 8.08209 11.2872 8.49609 11.2872H15.7161C16.1301 11.2872 16.4661 11.6232 16.4661 12.0372C16.4661 12.4512 16.1301 12.7872 15.7161 12.7872Z" fill="#2B71F0"/>
<path fill-rule="evenodd" clip-rule="evenodd" d="M11.2501 8.61047H8.49512C8.08112 8.61047 7.74512 8.27447 7.74512 7.86047C7.74512 7.44647 8.08112 7.11047 8.49512 7.11047H11.2501C11.6641 7.11047 12.0001 7.44647 12.0001 7.86047C12.0001 8.27447 11.6641 8.61047 11.2501 8.61047Z" fill="#2B71F0"/>
<mask id="mask0_7_19926" style="mask-type:luminance" maskUnits="userSpaceOnUse" x="3" y="2" width="19" height="20">
<path fill-rule="evenodd" clip-rule="evenodd" d="M3 2.00018H21.1647V21.91H3V2.00018Z" fill="white"/>
</mask>
<g mask="url(#mask0_7_19926)">
<path fill-rule="evenodd" clip-rule="evenodd" d="M15.9092 3.50016L8.22019 3.50416C5.89219 3.51816 4.50019 4.95816 4.50019 7.35716V16.5532C4.50019 18.9682 5.90519 20.4102 8.25619 20.4102L15.9452 20.4072C18.2732 20.3932 19.6652 18.9512 19.6652 16.5532V7.35716C19.6652 4.94216 18.2612 3.50016 15.9092 3.50016ZM8.257 21.9101C5.113 21.9101 3 19.7571 3 16.5531V7.35706C3 4.12406 5.047 2.02306 8.215 2.00406L15.908 2.00006H15.909C19.053 2.00006 21.165 4.15306 21.165 7.35706V16.5531C21.165 19.7851 19.118 21.8871 15.95 21.9071L8.257 21.9101Z" fill="#2B71F0"/>
</g>
</svg>

