<svg width="16" height="16" viewBox="0 0 16 16" fill="none" xmlns="http://www.w3.org/2000/svg">
<path d="M2.66699 3.99992C2.66699 3.63173 2.96547 3.33325 3.33366 3.33325H12.667C13.0352 3.33325 13.3337 3.63173 13.3337 3.99992C13.3337 4.36811 13.0352 4.66659 12.667 4.66659H3.33366C2.96547 4.66659 2.66699 4.36811 2.66699 3.99992Z" fill="#667185"/>
<path d="M4.00033 7.99992C4.00033 7.63173 4.2988 7.33325 4.66699 7.33325H11.3337C11.7018 7.33325 12.0003 7.63173 12.0003 7.99992C12.0003 8.36811 11.7018 8.66659 11.3337 8.66659H4.66699C4.2988 8.66659 4.00033 8.36811 4.00033 7.99992Z" fill="#667185"/>
<path d="M6.00033 11.3333C5.63214 11.3333 5.33366 11.6317 5.33366 11.9999C5.33366 12.3681 5.63214 12.6666 6.00033 12.6666H10.0003C10.3685 12.6666 10.667 12.3681 10.667 11.9999C10.667 11.6317 10.3685 11.3333 10.0003 11.3333H6.00033Z" fill="#667185"/>
</svg>

