<svg width="63" height="63" viewBox="0 0 63 63" fill="none" xmlns="http://www.w3.org/2000/svg">
<path fill-rule="evenodd" clip-rule="evenodd" d="M42.6429 20.3704L56.2183 6.79495L56.2115 6.78812C53.0949 3.67155 47.1908 5.63959 35.3826 9.57566L21.8656 14.0813C12.3352 17.2581 7.57004 18.8465 6.2159 21.1758C4.9277 23.3917 4.9277 26.1284 6.2159 28.3443C7.57003 30.6735 12.3352 32.2619 21.8656 35.4387C23.0467 35.8324 24.3755 35.5513 25.2599 34.6751L39.7122 20.3567C40.5252 19.5512 41.8374 19.5573 42.6429 20.3704Z" fill="#2B71F0"/>
<path opacity="0.5" d="M48.9175 41.1323L53.4231 27.6153C57.3563 15.8157 59.3244 9.91159 56.2175 6.79323L42.6421 20.3686C43.4476 21.1817 43.4415 22.4938 42.6284 23.2994L28.4095 37.3865C27.4347 38.3523 27.1261 39.8305 27.5601 41.1323C30.7368 50.6626 32.3253 55.4279 34.6545 56.782C36.8704 58.0702 39.6071 58.0702 41.823 56.782C44.1523 55.4279 45.7407 50.6627 48.9175 41.1323Z" fill="#2B71F0"/>
</svg>

