<svg width="24" height="24" viewBox="0 0 24 24" fill="none" xmlns="http://www.w3.org/2000/svg">
<path fill-rule="evenodd" clip-rule="evenodd" d="M11.8596 13.138H11.8866C14.4066 13.138 16.4556 11.088 16.4556 8.569C16.4556 6.05 14.4066 4 11.8866 4C9.36764 4 7.31864 6.05 7.31864 8.566C7.31364 9.783 7.78264 10.929 8.64064 11.792C9.49664 12.656 10.6396 13.134 11.8596 13.138ZM8.81864 8.569C8.81864 6.877 10.1946 5.5 11.8866 5.5C13.5786 5.5 14.9556 6.877 14.9556 8.569C14.9556 10.262 13.5786 11.638 11.8866 11.638H11.8616C11.0456 11.635 10.2796 11.314 9.70464 10.735C9.12964 10.156 8.81564 9.389 8.81864 8.569Z" fill="#2B71F0"/>
<path d="M17.1447 11.5005C17.1977 11.8755 17.5187 12.1465 17.8867 12.1465C17.9207 12.1465 17.9557 12.1445 17.9907 12.1395C19.7657 11.8905 21.1067 10.3505 21.1107 8.55551C21.1107 6.77251 19.8337 5.26851 18.0757 4.97951C17.6647 4.91451 17.2817 5.18851 17.2137 5.59751C17.1467 6.00651 17.4237 6.39251 17.8317 6.45951C18.8627 6.62851 19.6107 7.51051 19.6107 8.55351C19.6087 9.60551 18.8237 10.5075 17.7837 10.6535C17.3727 10.7105 17.0877 11.0895 17.1447 11.5005Z" fill="#2B71F0"/>
<path d="M20.1603 18.0482C20.2743 18.3472 20.5593 18.5312 20.8613 18.5312C20.9503 18.5312 21.0403 18.5152 21.1283 18.4822C22.5583 17.9372 22.7723 16.9442 22.7723 16.4002C22.7723 15.5092 22.2633 14.3712 19.8403 14.0082C19.4273 13.9552 19.0473 14.2282 18.9863 14.6382C18.9253 15.0492 19.2083 15.4302 19.6173 15.4922C20.7153 15.6562 21.2723 15.9622 21.2723 16.4002C21.2723 16.5372 21.2723 16.8222 20.5943 17.0802C20.2073 17.2272 20.0123 17.6612 20.1603 18.0482Z" fill="#2B71F0"/>
<path fill-rule="evenodd" clip-rule="evenodd" d="M11.8866 20.7909C10.2276 20.7909 5.17761 20.7909 5.17761 17.5959C5.17761 14.4139 10.2276 14.4139 11.8866 14.4139C13.5456 14.4139 18.5946 14.4139 18.5946 17.6129C18.5946 20.7909 13.7216 20.7909 11.8866 20.7909ZM11.8866 15.9139C9.51061 15.9139 6.67761 16.2059 6.67761 17.5959C6.67761 18.9969 9.51061 19.2909 11.8866 19.2909C14.2626 19.2909 17.0946 18.9999 17.0946 17.6129C17.0946 16.2089 14.2626 15.9139 11.8866 15.9139Z" fill="#2B71F0"/>
<path d="M5.8856 12.1465C5.8516 12.1465 5.8166 12.1445 5.7816 12.1395C4.0066 11.8905 2.6666 10.3505 2.6626 8.55745C2.6626 6.77245 3.9396 5.26845 5.6976 4.97945C6.1186 4.91345 6.4916 5.19045 6.5596 5.59745C6.6266 6.00645 6.3496 6.39245 5.9416 6.45945C4.9106 6.62845 4.1626 7.51045 4.1626 8.55545C4.1646 9.60545 4.9496 10.5085 5.9886 10.6535C6.3996 10.7105 6.6846 11.0894 6.6276 11.5005C6.5746 11.8755 6.2536 12.1465 5.8856 12.1465Z" fill="#2B71F0"/>
<path d="M2.645 18.4822C2.733 18.5152 2.823 18.5312 2.912 18.5312C3.214 18.5312 3.499 18.3472 3.613 18.0482C3.761 17.6612 3.566 17.2272 3.179 17.0802C2.5 16.8212 2.5 16.5372 2.5 16.4002C2.5 15.9622 3.057 15.6562 4.155 15.4922C4.564 15.4302 4.847 15.0492 4.786 14.6382C4.724 14.2282 4.346 13.9562 3.933 14.0082C1.509 14.3712 1 15.5102 1 16.4002C1 16.9432 1.214 17.9362 2.645 18.4822Z" fill="#2B71F0"/>
</svg>

