<svg width="16" height="16" viewBox="0 0 16 16" fill="none" xmlns="http://www.w3.org/2000/svg">
<path d="M4.66667 8.00002C4.66667 7.63183 4.96514 7.33335 5.33333 7.33335H10.6667C11.0349 7.33335 11.3333 7.63183 11.3333 8.00002C11.3333 8.36821 11.0349 8.66669 10.6667 8.66669H5.33333C4.96514 8.66669 4.66667 8.36821 4.66667 8.00002Z" fill="#98A2B3"/>
<path d="M5.33333 10.6667C4.96514 10.6667 4.66667 10.9652 4.66667 11.3334C4.66667 11.7015 4.96514 12 5.33333 12H10.6667C11.0349 12 11.3333 11.7015 11.3333 11.3334C11.3333 10.9652 11.0349 10.6667 10.6667 10.6667H5.33333Z" fill="#98A2B3"/>
<path fill-rule="evenodd" clip-rule="evenodd" d="M4.66667 0.666687C3.19391 0.666687 2 1.86059 2 3.33335V12.6667C2 14.1394 3.19391 15.3334 4.66667 15.3334H11.3333C12.8061 15.3334 14 14.1394 14 12.6667V6.05745C14 5.43362 13.7813 4.82954 13.3819 4.3503L11.1118 1.6262C10.6052 1.01822 9.85466 0.666687 9.06325 0.666687H4.66667ZM3.33333 3.33335C3.33333 2.59697 3.93029 2.00002 4.66667 2.00002H8.66667V4.00002C8.66667 5.47278 9.86057 6.66669 11.3333 6.66669H12.6667V12.6667C12.6667 13.4031 12.0697 14 11.3333 14H4.66667C3.93029 14 3.33333 13.4031 3.33333 12.6667V3.33335ZM12.4529 5.33335C12.4239 5.28851 12.3921 5.24526 12.3576 5.20387L10.0875 2.47977C10.0598 2.44646 10.0306 2.41469 10 2.38451V4.00002C10 4.7364 10.597 5.33335 11.3333 5.33335H12.4529Z" fill="#98A2B3"/>
</svg>